<mxfile host="app.diagrams.net" agent="Mozilla/5.0 (Macintosh; Intel Mac OS X 10_15_7) AppleWebKit/605.1.15 (KHTML, like Gecko) Version/18.6 Safari/605.1.15" version="28.2.7">
  <diagram name="Seite-1" id="eZVEo242rTYanCZxBgPT">
    <mxGraphModel dx="2590" dy="1189" grid="1" gridSize="10" guides="1" tooltips="1" connect="1" arrows="1" fold="1" page="1" pageScale="1" pageWidth="827" pageHeight="1169" math="0" shadow="0">
      <root>
        <mxCell id="0" />
        <mxCell id="1" parent="0" />
        <mxCell id="JyZ3HVOwcS6z-D7WyjqZ-58" style="edgeStyle=orthogonalEdgeStyle;rounded=0;orthogonalLoop=1;jettySize=auto;html=1;exitX=1;exitY=0.75;exitDx=0;exitDy=0;" edge="1" parent="1" source="JyZ3HVOwcS6z-D7WyjqZ-4">
          <mxGeometry relative="1" as="geometry">
            <mxPoint x="265" y="511.5" as="targetPoint" />
          </mxGeometry>
        </mxCell>
        <mxCell id="JyZ3HVOwcS6z-D7WyjqZ-4" value="Nutzername eingeben&amp;nbsp;" style="rounded=1;whiteSpace=wrap;html=1;" vertex="1" parent="1">
          <mxGeometry x="145" y="481.25" width="90" height="40" as="geometry" />
        </mxCell>
        <mxCell id="JyZ3HVOwcS6z-D7WyjqZ-36" style="edgeStyle=orthogonalEdgeStyle;rounded=0;orthogonalLoop=1;jettySize=auto;html=1;exitX=1;exitY=0.5;exitDx=0;exitDy=0;entryX=0;entryY=0.5;entryDx=0;entryDy=0;" edge="1" parent="1" source="JyZ3HVOwcS6z-D7WyjqZ-5" target="JyZ3HVOwcS6z-D7WyjqZ-35">
          <mxGeometry relative="1" as="geometry" />
        </mxCell>
        <mxCell id="JyZ3HVOwcS6z-D7WyjqZ-5" value="Passwort eingeben" style="rounded=1;whiteSpace=wrap;html=1;" vertex="1" parent="1">
          <mxGeometry x="485" y="481.25" width="80" height="37.5" as="geometry" />
        </mxCell>
        <mxCell id="JyZ3HVOwcS6z-D7WyjqZ-12" value="Nutzerverwaltung" style="shape=umlFrame;whiteSpace=wrap;html=1;pointerEvents=0;width=110;height=30;" vertex="1" parent="1">
          <mxGeometry x="-330" y="110" width="1470" height="500" as="geometry" />
        </mxCell>
        <mxCell id="JyZ3HVOwcS6z-D7WyjqZ-59" style="edgeStyle=orthogonalEdgeStyle;rounded=0;orthogonalLoop=1;jettySize=auto;html=1;exitX=1;exitY=0.5;exitDx=0;exitDy=0;" edge="1" parent="1">
          <mxGeometry relative="1" as="geometry">
            <mxPoint x="115.00000000000011" y="502.5" as="sourcePoint" />
            <mxPoint x="145" y="502.5" as="targetPoint" />
            <Array as="points">
              <mxPoint x="145" y="502.5" />
            </Array>
          </mxGeometry>
        </mxCell>
        <mxCell id="JyZ3HVOwcS6z-D7WyjqZ-67" style="edgeStyle=orthogonalEdgeStyle;rounded=0;orthogonalLoop=1;jettySize=auto;html=1;exitX=1;exitY=0.5;exitDx=0;exitDy=0;entryX=0;entryY=0.5;entryDx=0;entryDy=0;" edge="1" parent="1" source="JyZ3HVOwcS6z-D7WyjqZ-14" target="JyZ3HVOwcS6z-D7WyjqZ-22">
          <mxGeometry relative="1" as="geometry" />
        </mxCell>
        <mxCell id="JyZ3HVOwcS6z-D7WyjqZ-14" value="Email eingeben" style="rounded=1;whiteSpace=wrap;html=1;" vertex="1" parent="1">
          <mxGeometry x="265" y="481.25" width="70" height="37.5" as="geometry" />
        </mxCell>
        <mxCell id="JyZ3HVOwcS6z-D7WyjqZ-51" style="edgeStyle=orthogonalEdgeStyle;rounded=0;orthogonalLoop=1;jettySize=auto;html=1;exitX=0.5;exitY=0;exitDx=0;exitDy=0;entryX=0;entryY=0.25;entryDx=0;entryDy=0;" edge="1" parent="1" source="JyZ3HVOwcS6z-D7WyjqZ-22" target="JyZ3HVOwcS6z-D7WyjqZ-14">
          <mxGeometry relative="1" as="geometry" />
        </mxCell>
        <mxCell id="JyZ3HVOwcS6z-D7WyjqZ-52" value="Email abgelehnt" style="edgeLabel;html=1;align=center;verticalAlign=middle;resizable=0;points=[];" vertex="1" connectable="0" parent="JyZ3HVOwcS6z-D7WyjqZ-51">
          <mxGeometry x="-0.3348" y="-1" relative="1" as="geometry">
            <mxPoint x="-9" y="-5" as="offset" />
          </mxGeometry>
        </mxCell>
        <mxCell id="JyZ3HVOwcS6z-D7WyjqZ-55" style="edgeStyle=orthogonalEdgeStyle;rounded=0;orthogonalLoop=1;jettySize=auto;html=1;exitX=1;exitY=0.5;exitDx=0;exitDy=0;entryX=0;entryY=0.5;entryDx=0;entryDy=0;" edge="1" parent="1" source="JyZ3HVOwcS6z-D7WyjqZ-22" target="JyZ3HVOwcS6z-D7WyjqZ-5">
          <mxGeometry relative="1" as="geometry" />
        </mxCell>
        <mxCell id="JyZ3HVOwcS6z-D7WyjqZ-56" value="Email akzeptiert" style="edgeLabel;html=1;align=center;verticalAlign=middle;resizable=0;points=[];" vertex="1" connectable="0" parent="JyZ3HVOwcS6z-D7WyjqZ-55">
          <mxGeometry x="-0.1384" y="-2" relative="1" as="geometry">
            <mxPoint x="-3" y="12" as="offset" />
          </mxGeometry>
        </mxCell>
        <mxCell id="JyZ3HVOwcS6z-D7WyjqZ-22" value="" style="rhombus;whiteSpace=wrap;html=1;" vertex="1" parent="1">
          <mxGeometry x="370" y="480" width="30" height="40" as="geometry" />
        </mxCell>
        <mxCell id="JyZ3HVOwcS6z-D7WyjqZ-60" style="edgeStyle=orthogonalEdgeStyle;rounded=0;orthogonalLoop=1;jettySize=auto;html=1;exitX=0.5;exitY=0;exitDx=0;exitDy=0;entryX=0;entryY=0.25;entryDx=0;entryDy=0;" edge="1" parent="1" source="JyZ3HVOwcS6z-D7WyjqZ-35" target="JyZ3HVOwcS6z-D7WyjqZ-5">
          <mxGeometry relative="1" as="geometry" />
        </mxCell>
        <mxCell id="JyZ3HVOwcS6z-D7WyjqZ-61" value="Passwort abgelehnt" style="edgeLabel;html=1;align=center;verticalAlign=middle;resizable=0;points=[];" vertex="1" connectable="0" parent="JyZ3HVOwcS6z-D7WyjqZ-60">
          <mxGeometry x="-0.2436" y="-1" relative="1" as="geometry">
            <mxPoint y="-7" as="offset" />
          </mxGeometry>
        </mxCell>
        <mxCell id="JyZ3HVOwcS6z-D7WyjqZ-35" value="" style="rhombus;whiteSpace=wrap;html=1;" vertex="1" parent="1">
          <mxGeometry x="585" y="480" width="30" height="40" as="geometry" />
        </mxCell>
        <mxCell id="JyZ3HVOwcS6z-D7WyjqZ-64" value="Registrierung" style="rounded=1;whiteSpace=wrap;html=1;" vertex="1" parent="1">
          <mxGeometry x="30" y="480" width="80" height="40" as="geometry" />
        </mxCell>
        <mxCell id="JyZ3HVOwcS6z-D7WyjqZ-120" style="edgeStyle=orthogonalEdgeStyle;rounded=0;orthogonalLoop=1;jettySize=auto;html=1;exitX=0.5;exitY=1;exitDx=0;exitDy=0;entryX=0.25;entryY=0;entryDx=0;entryDy=0;" edge="1" parent="1" source="JyZ3HVOwcS6z-D7WyjqZ-65" target="JyZ3HVOwcS6z-D7WyjqZ-69">
          <mxGeometry relative="1" as="geometry" />
        </mxCell>
        <mxCell id="JyZ3HVOwcS6z-D7WyjqZ-65" value="" style="ellipse;html=1;shape=startState;fillColor=#000000;strokeColor=#ff0000;" vertex="1" parent="1">
          <mxGeometry x="-310" y="200" width="30" height="30" as="geometry" />
        </mxCell>
        <mxCell id="JyZ3HVOwcS6z-D7WyjqZ-83" style="edgeStyle=orthogonalEdgeStyle;rounded=0;orthogonalLoop=1;jettySize=auto;html=1;exitX=1;exitY=0.5;exitDx=0;exitDy=0;entryX=0;entryY=0.5;entryDx=0;entryDy=0;" edge="1" parent="1" source="JyZ3HVOwcS6z-D7WyjqZ-69" target="JyZ3HVOwcS6z-D7WyjqZ-71">
          <mxGeometry relative="1" as="geometry" />
        </mxCell>
        <mxCell id="JyZ3HVOwcS6z-D7WyjqZ-69" value="Anmeldeseite" style="rounded=1;whiteSpace=wrap;html=1;" vertex="1" parent="1">
          <mxGeometry x="-320" y="278.75" width="100" height="40" as="geometry" />
        </mxCell>
        <mxCell id="JyZ3HVOwcS6z-D7WyjqZ-73" style="edgeStyle=orthogonalEdgeStyle;rounded=0;orthogonalLoop=1;jettySize=auto;html=1;exitX=0.5;exitY=0;exitDx=0;exitDy=0;entryX=0.5;entryY=0;entryDx=0;entryDy=0;" edge="1" parent="1" source="JyZ3HVOwcS6z-D7WyjqZ-71" target="JyZ3HVOwcS6z-D7WyjqZ-110">
          <mxGeometry relative="1" as="geometry">
            <mxPoint x="-60" y="196.25" as="targetPoint" />
          </mxGeometry>
        </mxCell>
        <mxCell id="JyZ3HVOwcS6z-D7WyjqZ-78" value="Nutzer ist angemeldet&amp;nbsp;" style="edgeLabel;html=1;align=center;verticalAlign=middle;resizable=0;points=[];" vertex="1" connectable="0" parent="JyZ3HVOwcS6z-D7WyjqZ-73">
          <mxGeometry x="0.4245" y="3" relative="1" as="geometry">
            <mxPoint x="-17" y="-8" as="offset" />
          </mxGeometry>
        </mxCell>
        <mxCell id="JyZ3HVOwcS6z-D7WyjqZ-71" value="" style="rhombus;whiteSpace=wrap;html=1;" vertex="1" parent="1">
          <mxGeometry x="-180" y="277.5" width="30" height="40" as="geometry" />
        </mxCell>
        <mxCell id="JyZ3HVOwcS6z-D7WyjqZ-79" value="" style="edgeStyle=orthogonalEdgeStyle;rounded=0;orthogonalLoop=1;jettySize=auto;html=1;exitX=0.63;exitY=0.625;exitDx=0;exitDy=0;exitPerimeter=0;" edge="1" parent="1" source="JyZ3HVOwcS6z-D7WyjqZ-75" target="JyZ3HVOwcS6z-D7WyjqZ-64">
          <mxGeometry relative="1" as="geometry" />
        </mxCell>
        <mxCell id="JyZ3HVOwcS6z-D7WyjqZ-82" value="" style="edgeStyle=orthogonalEdgeStyle;rounded=0;orthogonalLoop=1;jettySize=auto;html=1;entryX=0;entryY=0.5;entryDx=0;entryDy=0;exitX=0.305;exitY=0.25;exitDx=0;exitDy=0;exitPerimeter=0;" edge="1" parent="1" source="JyZ3HVOwcS6z-D7WyjqZ-75" target="JyZ3HVOwcS6z-D7WyjqZ-81">
          <mxGeometry relative="1" as="geometry">
            <mxPoint x="-42" y="441" as="sourcePoint" />
          </mxGeometry>
        </mxCell>
        <mxCell id="JyZ3HVOwcS6z-D7WyjqZ-75" value="" style="line;strokeWidth=1;fillColor=none;align=left;verticalAlign=middle;spacingTop=-1;spacingLeft=3;spacingRight=3;rotatable=0;labelPosition=right;points=[];portConstraint=eastwest;strokeColor=inherit;direction=south;" vertex="1" parent="1">
          <mxGeometry x="-50" y="361.25" width="8" height="160" as="geometry" />
        </mxCell>
        <mxCell id="JyZ3HVOwcS6z-D7WyjqZ-76" style="edgeStyle=orthogonalEdgeStyle;rounded=0;orthogonalLoop=1;jettySize=auto;html=1;exitX=0.5;exitY=1;exitDx=0;exitDy=0;entryX=0.494;entryY=0.75;entryDx=0;entryDy=0;entryPerimeter=0;" edge="1" parent="1" source="JyZ3HVOwcS6z-D7WyjqZ-71" target="JyZ3HVOwcS6z-D7WyjqZ-75">
          <mxGeometry relative="1" as="geometry" />
        </mxCell>
        <mxCell id="JyZ3HVOwcS6z-D7WyjqZ-77" value="Nutzer ist nicht angemeldet" style="edgeLabel;html=1;align=center;verticalAlign=middle;resizable=0;points=[];" vertex="1" connectable="0" parent="JyZ3HVOwcS6z-D7WyjqZ-76">
          <mxGeometry x="0.2621" y="1" relative="1" as="geometry">
            <mxPoint x="-1" y="8" as="offset" />
          </mxGeometry>
        </mxCell>
        <mxCell id="JyZ3HVOwcS6z-D7WyjqZ-89" value="" style="edgeStyle=orthogonalEdgeStyle;rounded=0;orthogonalLoop=1;jettySize=auto;html=1;" edge="1" parent="1" source="JyZ3HVOwcS6z-D7WyjqZ-81" target="JyZ3HVOwcS6z-D7WyjqZ-84">
          <mxGeometry relative="1" as="geometry" />
        </mxCell>
        <mxCell id="JyZ3HVOwcS6z-D7WyjqZ-81" value="Anmelden" style="rounded=1;whiteSpace=wrap;html=1;" vertex="1" parent="1">
          <mxGeometry x="30" y="360" width="80" height="41.25" as="geometry" />
        </mxCell>
        <mxCell id="JyZ3HVOwcS6z-D7WyjqZ-98" value="" style="edgeStyle=orthogonalEdgeStyle;rounded=0;orthogonalLoop=1;jettySize=auto;html=1;" edge="1" parent="1" source="JyZ3HVOwcS6z-D7WyjqZ-84" target="JyZ3HVOwcS6z-D7WyjqZ-86">
          <mxGeometry relative="1" as="geometry" />
        </mxCell>
        <mxCell id="JyZ3HVOwcS6z-D7WyjqZ-84" value="Email eingeben" style="rounded=1;whiteSpace=wrap;html=1;" vertex="1" parent="1">
          <mxGeometry x="160" y="360" width="110" height="40" as="geometry" />
        </mxCell>
        <mxCell id="JyZ3HVOwcS6z-D7WyjqZ-95" value="" style="edgeStyle=orthogonalEdgeStyle;rounded=0;orthogonalLoop=1;jettySize=auto;html=1;" edge="1" parent="1" source="JyZ3HVOwcS6z-D7WyjqZ-86" target="JyZ3HVOwcS6z-D7WyjqZ-87">
          <mxGeometry relative="1" as="geometry" />
        </mxCell>
        <mxCell id="JyZ3HVOwcS6z-D7WyjqZ-86" value="Passwort eingeben" style="rounded=1;whiteSpace=wrap;html=1;" vertex="1" parent="1">
          <mxGeometry x="350" y="362.5" width="100" height="37.5" as="geometry" />
        </mxCell>
        <mxCell id="JyZ3HVOwcS6z-D7WyjqZ-99" style="edgeStyle=orthogonalEdgeStyle;rounded=0;orthogonalLoop=1;jettySize=auto;html=1;exitX=0.5;exitY=0;exitDx=0;exitDy=0;entryX=0;entryY=0.25;entryDx=0;entryDy=0;" edge="1" parent="1" source="JyZ3HVOwcS6z-D7WyjqZ-87" target="JyZ3HVOwcS6z-D7WyjqZ-84">
          <mxGeometry relative="1" as="geometry" />
        </mxCell>
        <mxCell id="JyZ3HVOwcS6z-D7WyjqZ-100" value="Email oder Passwort falsch" style="edgeLabel;html=1;align=center;verticalAlign=middle;resizable=0;points=[];" vertex="1" connectable="0" parent="JyZ3HVOwcS6z-D7WyjqZ-99">
          <mxGeometry x="0.2829" y="-2" relative="1" as="geometry">
            <mxPoint y="-8" as="offset" />
          </mxGeometry>
        </mxCell>
        <mxCell id="JyZ3HVOwcS6z-D7WyjqZ-87" value="" style="rhombus;whiteSpace=wrap;html=1;" vertex="1" parent="1">
          <mxGeometry x="610" y="360" width="30" height="38.75" as="geometry" />
        </mxCell>
        <mxCell id="JyZ3HVOwcS6z-D7WyjqZ-111" value="" style="edgeStyle=orthogonalEdgeStyle;rounded=0;orthogonalLoop=1;jettySize=auto;html=1;exitX=0.467;exitY=0.5;exitDx=0;exitDy=0;exitPerimeter=0;" edge="1" parent="1" source="JyZ3HVOwcS6z-D7WyjqZ-103" target="JyZ3HVOwcS6z-D7WyjqZ-110">
          <mxGeometry relative="1" as="geometry" />
        </mxCell>
        <mxCell id="JyZ3HVOwcS6z-D7WyjqZ-103" value="" style="line;strokeWidth=1;fillColor=none;align=left;verticalAlign=middle;spacingTop=-1;spacingLeft=3;spacingRight=3;rotatable=0;labelPosition=right;points=[];portConstraint=eastwest;strokeColor=inherit;direction=south;" vertex="1" parent="1">
          <mxGeometry x="710" y="340" width="8" height="180" as="geometry" />
        </mxCell>
        <mxCell id="JyZ3HVOwcS6z-D7WyjqZ-104" value="Anmeldedaten&lt;div&gt;&amp;nbsp;akzeptiert&lt;/div&gt;" style="edgeStyle=orthogonalEdgeStyle;rounded=0;orthogonalLoop=1;jettySize=auto;html=1;exitX=1;exitY=0.5;exitDx=0;exitDy=0;entryX=0.222;entryY=0.75;entryDx=0;entryDy=0;entryPerimeter=0;" edge="1" parent="1" source="JyZ3HVOwcS6z-D7WyjqZ-87" target="JyZ3HVOwcS6z-D7WyjqZ-103">
          <mxGeometry x="-0.0193" y="-20" relative="1" as="geometry">
            <mxPoint as="offset" />
          </mxGeometry>
        </mxCell>
        <mxCell id="JyZ3HVOwcS6z-D7WyjqZ-105" style="edgeStyle=orthogonalEdgeStyle;rounded=0;orthogonalLoop=1;jettySize=auto;html=1;exitX=1;exitY=0.5;exitDx=0;exitDy=0;entryX=0.889;entryY=0.875;entryDx=0;entryDy=0;entryPerimeter=0;" edge="1" parent="1" source="JyZ3HVOwcS6z-D7WyjqZ-35" target="JyZ3HVOwcS6z-D7WyjqZ-103">
          <mxGeometry relative="1" as="geometry" />
        </mxCell>
        <mxCell id="JyZ3HVOwcS6z-D7WyjqZ-108" value="Passwort akzeptiert" style="edgeLabel;html=1;align=center;verticalAlign=middle;resizable=0;points=[];" vertex="1" connectable="0" parent="JyZ3HVOwcS6z-D7WyjqZ-105">
          <mxGeometry x="0.2143" y="-2" relative="1" as="geometry">
            <mxPoint x="-13" y="8" as="offset" />
          </mxGeometry>
        </mxCell>
        <mxCell id="JyZ3HVOwcS6z-D7WyjqZ-114" value="" style="edgeStyle=orthogonalEdgeStyle;rounded=0;orthogonalLoop=1;jettySize=auto;html=1;" edge="1" parent="1" source="JyZ3HVOwcS6z-D7WyjqZ-109" target="JyZ3HVOwcS6z-D7WyjqZ-113">
          <mxGeometry relative="1" as="geometry" />
        </mxCell>
        <mxCell id="JyZ3HVOwcS6z-D7WyjqZ-119" value="Änderungen" style="edgeLabel;html=1;align=center;verticalAlign=middle;resizable=0;points=[];" vertex="1" connectable="0" parent="JyZ3HVOwcS6z-D7WyjqZ-114">
          <mxGeometry x="-0.4917" relative="1" as="geometry">
            <mxPoint x="10" y="-12" as="offset" />
          </mxGeometry>
        </mxCell>
        <mxCell id="JyZ3HVOwcS6z-D7WyjqZ-117" style="edgeStyle=orthogonalEdgeStyle;rounded=0;orthogonalLoop=1;jettySize=auto;html=1;exitX=0.5;exitY=1;exitDx=0;exitDy=0;entryX=0;entryY=0.5;entryDx=0;entryDy=0;" edge="1" parent="1" source="JyZ3HVOwcS6z-D7WyjqZ-109" target="JyZ3HVOwcS6z-D7WyjqZ-115">
          <mxGeometry relative="1" as="geometry" />
        </mxCell>
        <mxCell id="JyZ3HVOwcS6z-D7WyjqZ-118" value="keine Änderungen&amp;nbsp;" style="edgeLabel;html=1;align=center;verticalAlign=middle;resizable=0;points=[];" vertex="1" connectable="0" parent="JyZ3HVOwcS6z-D7WyjqZ-117">
          <mxGeometry x="-0.6254" y="-1" relative="1" as="geometry">
            <mxPoint y="1" as="offset" />
          </mxGeometry>
        </mxCell>
        <mxCell id="JyZ3HVOwcS6z-D7WyjqZ-109" value="" style="rhombus;whiteSpace=wrap;html=1;" vertex="1" parent="1">
          <mxGeometry x="880" y="402.5" width="30" height="40" as="geometry" />
        </mxCell>
        <mxCell id="JyZ3HVOwcS6z-D7WyjqZ-112" value="" style="edgeStyle=orthogonalEdgeStyle;rounded=0;orthogonalLoop=1;jettySize=auto;html=1;" edge="1" parent="1" source="JyZ3HVOwcS6z-D7WyjqZ-110" target="JyZ3HVOwcS6z-D7WyjqZ-109">
          <mxGeometry relative="1" as="geometry" />
        </mxCell>
        <mxCell id="JyZ3HVOwcS6z-D7WyjqZ-110" value="Angemeldet" style="rounded=1;whiteSpace=wrap;html=1;" vertex="1" parent="1">
          <mxGeometry x="760" y="402.5" width="80" height="38.75" as="geometry" />
        </mxCell>
        <mxCell id="JyZ3HVOwcS6z-D7WyjqZ-116" style="edgeStyle=orthogonalEdgeStyle;rounded=0;orthogonalLoop=1;jettySize=auto;html=1;entryX=1;entryY=0.5;entryDx=0;entryDy=0;exitX=0.5;exitY=1;exitDx=0;exitDy=0;" edge="1" parent="1" source="JyZ3HVOwcS6z-D7WyjqZ-113" target="JyZ3HVOwcS6z-D7WyjqZ-115">
          <mxGeometry relative="1" as="geometry" />
        </mxCell>
        <mxCell id="JyZ3HVOwcS6z-D7WyjqZ-113" value="Nutzerdaten aktualisieren" style="rounded=1;whiteSpace=wrap;html=1;" vertex="1" parent="1">
          <mxGeometry x="1010" y="391.88" width="120" height="60" as="geometry" />
        </mxCell>
        <mxCell id="JyZ3HVOwcS6z-D7WyjqZ-115" value="" style="ellipse;html=1;shape=endState;fillColor=#000000;strokeColor=#ff0000;" vertex="1" parent="1">
          <mxGeometry x="960" y="520" width="30" height="30" as="geometry" />
        </mxCell>
      </root>
    </mxGraphModel>
  </diagram>
</mxfile>
